<svg fill="currentColor" width="512" height="512" xmlns="http://www.w3.org/2000/svg" stroke="null" style="vector-effect: non-scaling-stroke;" version="1.1">

 <g stroke="null">
  <title stroke="null">Layer 1</title>
  <g stroke="null" id="svg_3">
   <path stroke="null" id="svg_1" d="m305.91294,132.70136c9.95507,1.24438 18.04901,5.53183 26.84729,10.06773c2.22644,1.06707 2.22644,1.06707 4.49786,2.1557c19.78599,10.20817 25.76001,30.21334 34.40585,49.67448c1.19353,2.66534 2.38744,5.33052 3.58169,7.99554c24.06281,53.84418 47.34444,108.04408 70.5183,162.27566c7.04616,16.48557 14.13032,32.95419 21.24828,49.40889c0.85458,1.97602 1.70914,3.95202 2.58961,5.98792c4.20341,9.71798 8.41012,19.43451 12.62123,29.14913c1.54066,3.56011 3.08121,7.12026 4.62167,10.68047c1.03599,2.38527 1.03599,2.38527 2.0929,4.81875c1.98751,4.59729 3.94611,9.20603 5.9007,13.81742c0.77044,1.77202 1.5409,3.54406 2.33468,5.36978c1.12196,2.65595 1.12196,2.65595 2.26659,5.36554c0.68924,1.60837 1.37848,3.21676 2.08862,4.87386c1.26487,4.27771 1.26487,4.27771 -0.72382,10.24377c-8.62327,-1.12395 -15.50574,-3.22446 -23.35155,-6.94488c-2.2439,-1.05522 -4.48779,-2.11044 -6.7997,-3.19763c-2.4619,-1.17625 -4.92363,-2.35284 -7.38523,-3.52972c-2.60488,-1.23219 -5.21034,-2.46311 -7.81638,-3.69285c-7.19617,-3.40064 -14.38311,-6.8204 -21.56883,-10.24302c-8.17796,-3.89059 -16.36485,-7.76235 -24.55017,-11.6374c-30.09643,-14.25674 -60.1634,-28.57403 -90.17021,-43.0185c-17.80435,-8.56122 -35.65238,-17.02953 -53.50127,-25.49735c-10.28309,-4.88028 -20.5626,-9.7681 -30.84234,-14.65538c-8.98193,-4.269 -17.96883,-8.52714 -26.96245,-12.77141c-3.75963,-1.77659 -7.51625,-3.55933 -11.27158,-5.345c-4.41439,-2.09888 -8.83351,-4.18784 -13.25856,-6.26417c-35.33012,-16.86592 -35.33012,-16.86592 -42.59851,-36.65916c-0.5832,-1.43046 -1.16641,-2.86091 -1.76729,-4.33472c-4.07448,-10.19097 -4.07448,-10.19097 -4.07448,-15.05498c10.97583,1.05281 20.09124,3.06958 30.45178,7.0847c1.36573,0.52921 2.73146,1.05842 4.13856,1.60368c4.39061,1.71725 8.76582,3.46925 13.13817,5.23244c2.1029,0.84213 2.1029,0.84213 4.24829,1.70126c26.6192,10.73267 52.5725,22.90827 78.55749,35.07729c12.14943,5.68743 24.33096,11.30428 36.51549,16.91602c41.2051,19.00468 82.37191,38.07377 123.29865,57.67195c-0.76012,-1.65021 -0.76012,-1.65021 -1.53561,-3.33376c-12.69479,-27.61194 -24.87294,-55.39675 -36.62234,-83.42275c-1.63279,-3.88349 -3.26592,-7.76684 -4.89937,-11.65003c-4.09656,-9.74435 -8.18429,-19.49234 -12.26933,-29.24151c-2.25806,-5.38594 -4.51973,-10.77032 -6.78296,-16.15409c-3.40901,-8.10999 -6.81146,-16.2227 -10.20786,-24.338c-1.23016,-2.93787 -2.46198,-5.87506 -3.69566,-8.81144c-6.71717,-15.9989 -13.14435,-32.06242 -19.17541,-48.33305c-4.37732,-11.79803 -9.03087,-23.47063 -13.81643,-35.10919c-0.78317,-1.9265 -1.56633,-3.853 -2.37322,-5.83789c-1.1209,-2.73594 -1.1209,-2.73594 -2.26446,-5.52714c-0.66349,-1.62001 -1.32695,-3.24001 -2.01054,-4.9091c-1.3887,-3.68176 -1.3887,-3.68176 -3.6681,-5.72573c-0.08116,-3.97654 -0.0846,-7.95565 0,-11.93213z"/>
   <path stroke="null" id="svg_2" d="m11.58712,7.41402c5.30807,1.80957 10.60993,3.63476 15.9095,5.46889c1.47917,0.50246 2.95833,1.0049 4.48232,1.5226c4.50623,1.56736 8.96453,3.2238 13.41587,4.94064c1.30997,0.49268 2.61994,0.98536 3.9696,1.49297c13.14622,5.68204 22.06083,15.77332 31.82678,25.97578c10.43381,10.75789 20.81114,21.30605 32.20742,31.04752c6.46339,5.64235 12.36872,11.82621 18.34877,17.97054c5.33215,5.41816 10.78977,10.5407 16.56203,15.49001c11.78886,10.19757 22.53434,21.45206 33.4659,32.54923c7.36634,7.43413 14.70418,14.7741 22.65239,21.58814c10.16412,8.71465 19.48093,18.26556 28.89812,27.77171c1.82524,1.83421 3.65048,3.66843 5.53104,5.55822c4.45844,4.48167 8.91215,8.96793 13.3615,13.4586c7.96503,-3.18932 13.27869,-8.79227 19.1722,-14.8064c1.04812,-1.05377 2.09626,-2.10751 3.17613,-3.1932c3.33211,-3.3543 6.65007,-6.72218 9.96784,-10.09062c2.26225,-2.2822 4.5254,-4.5635 6.7895,-6.84389c5.53645,-5.5802 11.06029,-11.17263 16.57758,-16.77178c6.39481,5.90213 9.24139,12.54631 12.4293,20.50834c0.55886,1.29587 1.1177,2.59174 1.69349,3.92688c3.46268,8.56244 4.71057,14.46005 1.78672,23.29328c-3.55013,4.59107 -3.55013,4.59107 -8.07904,8.8248c-1.45866,1.392 -2.91731,2.784 -4.42018,4.21819c-2.89939,2.60737 -5.80939,5.20422 -8.77992,7.73027c-10.77378,9.202 -20.5682,19.13249 -30.34907,29.37119c-3.3894,3.49196 -6.78164,6.98115 -10.17647,10.46782c-5.29289,5.44027 -10.5687,10.89286 -15.79881,16.39355c-5.09206,5.34533 -10.24566,10.62423 -15.41428,15.89542c-1.54396,1.65284 -3.0879,3.30568 -4.67865,5.00859c-7.76426,7.80526 -12.91776,12.46701 -24.23113,12.66092c-9.1949,-0.68815 -17.13708,-3.37733 -25.48394,-7.15898c-1.33304,-0.5691 -2.66609,-1.13821 -4.03952,-1.72457c-3.22472,-1.38202 -6.43094,-2.80709 -9.63271,-4.24149c5.92416,-7.2571 11.73264,-13.9623 18.89254,-20.01117c13.03495,-11.04915 24.79383,-23.52355 36.79073,-35.67209c-9.1733,-11.00578 -18.92785,-21.20715 -29.06903,-31.32184c-2.43411,-2.43698 -2.43411,-2.43698 -4.91739,-4.92318c-3.41722,-3.41855 -6.83693,-6.83462 -10.25898,-10.24835c-5.20024,-5.1896 -10.3898,-10.38972 -15.57837,-15.591c-3.33716,-3.33583 -6.67491,-6.67105 -10.01336,-10.00559c-1.53346,-1.53749 -3.06691,-3.07497 -4.64685,-4.65904c-8.22722,-8.19222 -16.63454,-16.02747 -25.42919,-23.60644c-4.44543,-3.88351 -8.61957,-7.98474 -12.75843,-12.19189c-1.5817,-1.5971 -3.16341,-3.19417 -4.79306,-4.83965c-3.22643,-3.27823 -6.45287,-6.55647 -9.6793,-9.8347c-10.77527,-10.88003 -21.83243,-21.18927 -33.64554,-30.93438c-24.76976,-20.68458 -39.74335,-47.18602 -48.02274,-78.49783c0.65627,-1.9688 1.31253,-3.9376 1.98869,-5.96606z"/>
  </g>
 </g>
</svg>